<svg xmlns="http://www.w3.org/2000/svg" viewBox="0 0 70.739799 32.374111" height="32.37411" width="70.7398">
  <path d="M6.31836 0C2.39886 0 0 2.75094 0 7.11914c0 4.3877 2.39896 7.13672 6.31836 7.13672 1.0728 0 1.87258-.11715 2.92578-.46875l.93555-.3125c.1753-.0586.2148-.1563.1562-.3125l-.7793-2.125c-.0391-.1562-.1567-.2148-.3125-.1562l-.918.2735c-.7017.2334-1.2861.293-2.0078.293-1.9501 0-3.1387-1.58-3.1387-4.33 0-2.7109 1.1884-4.2891 3.1386-4.2891.8969 0 1.4619.0781 2.0273.2539l.9179.2911c.1557.0586.2524.0019.3105-.1543l.7031-2.2031c.0586-.1563-.00047-.2539-.15627-.3125l-.8964-.293C8.2495.0977 7.42963 0 6.31833 0zm11.6211 0c-3.8608 0-6.2207 2.73144-6.2207 7.11914 0 4.3682 2.3599 7.13672 6.2207 7.13672 3.8418 0 6.20116-2.76852 6.20116-7.13672C24.14062 2.73144 21.78136 0 17.93945 0zm8.4043.21484c-.1557 0-.25196.0977-.25196.2539V13.7871c0 .1562.09615.25393.25195.25393h4.8379c3.8217 0 6.24022-2.76855 6.24022-6.90235 0-4.2315-2.34033-6.92383-6.24023-6.92383h-4.8379zm13.2793 0c-.1552 0-.25197.0977-.25197.2539V13.7871c0 .1562.0966.25393.2519.25393h9.2832c.1562 0 .2539-.0977.2539-.2539v-2.2422c0-.1562-.0977-.2539-.2539-.2539h-6.3769v-2.9844h4.7773c.1552 0 .2539-.09664.2539-.25194V5.8105c0-.1562-.0986-.25196-.2539-.25196h-4.7773v-2.5742h5.791c.1368 0 .2353-.07815.2734-.21485l.625-2.2617c.0391-.1758-.0391-.293-.2149-.293H39.623zm-21.6836 2.61328c1.8916 0 3.02343 1.56052 3.02343 4.29102 0 2.6719-1.1319 4.32813-3.0235 4.32813s-3.041-1.65623-3.041-4.32813c0-2.7305 1.1494-4.291 3.041-4.291zM29.25 2.98438h1.93164c1.8916 0 3.06055 1.4824 3.06055 4.1543 0 2.6523-1.169 4.15235-3.0606 4.15235H29.25V2.98438zm28.22852.66407c-1.2188 0-2.0733.79593-2.3047 2.14453l-.20312 1.3047h-.68164c-.0723 0-.11626.04202-.13086.11522l-.10156.59374c-.0137.0869.02833.1465.11523.1465l.65235-.00002-.95508 5.94336c-.0157.0869.02833.14454.11523.14454h.68165c.0723 0 .11525-.0449.13085-.1172l.9707-5.9707h1.63868c.0723 0 .1143-.04488.1289-.11718l.10157-.59375c.0147-.0869-.02834-.1446-.11524-.1446H55.9121l.20313-1.2325c.1308-.8115.63766-1.334 1.31836-1.334.1592 0 .3046.0293.4648.0879l.1445.0585c.0722.043.1308.0137.1738-.0586l.3046-.5508c.044-.0732.0283-.13-.0586-.1739l-.2168-.0879c-.2608-.1016-.4785-.1582-.7676-.1582zm4.33593 3.30273c-2.7539 0-3.76758 2.60938-3.76758 4.42188 0 1.7539.9834 2.8125 2.709 2.8125 2.7549 0 3.75585-2.63765 3.75585-4.43555 0-1.7393-.98637-2.7988-2.69727-2.7988zm8.4121.00195c-1.1016.0439-1.9277.53715-2.5957 1.40625-.0859.1162-.1738.0859-.1875-.0293l.07228-1.10155c.0137-.0869-.0303-.13086-.1172-.13086h-.46288c-.0723 0-.11526.04398-.13086.11718l-1.0723 6.68164c-.0147.0869.0283.1445.1152.1445h.6816c.0723 0 .1162-.0449.1308-.1172l.3613-2.2754c.4063-2.4648 1.5078-3.7686 3.0879-3.8262.0723 0 .1171-.044.1308-.1172l.1015-.6074c.0147-.0869-.0294-.1446-.1153-.1446zm-8.4414.86915c1.1456 0 1.79883.7236 1.79883 1.9707 0 1.3477-.69722 3.52344-2.79882 3.52344-1.1592 0-1.79688-.72555-1.79688-1.97265 0-1.3476.68068-3.52138 2.79688-3.52148zm-34.23632 9.3496c-.13276-.02066-.25976-.01464-.36524.01758-.4219.1269-.8672.6426-.6602 1.2793l3.9238 11.58008c.3359 1.336 1.2734 2.32615 2.7832 2.31445l6.8086.0117c1.6446.0039 2.0917-.8672 2.4511-2.127l3.6679-9.5801c.1445-.6367-.2559-1.293-.9102-1.461l-.0625-.0098c-.6406-.1445-1.2363.4452-1.459.914l-2.6035 4.8711.1582.707c.211.9453-.3984 1.9004-1.3535 2.1289 0 0-.711.0957-1.2227-.1406 0 0 .2548 1.4991-1.2559 1.8555-1.4786.3486-2.0713-.5928-2.2969-1.4082-.8681.9599-2.2744.8808-2.8359-.1856l-3.7617-9.9199c-.1494-.4907-.6076-.78566-1.0059-.8476zm-26.9043 1.375c-.1557 0-.2539.0977-.2539.2539v13.31837c0 .1562.0981.2539.2539.2539h2.65234c.1557 0 .25196-.0977.25196-.2539v-5.47852h5.0703v5.47852c0 .1562.09772.2539.25392.2539h2.6328c.1562 0 .25392-.0977.25392-.2539V18.80078c0-.1562-.0977-.2539-.2539-.2539H8.87304c-.1562 0-.2539.0977-.2539.2539v5.08985H3.54882v-5.08985c0-.1562-.09615-.2539-.25196-.2539H.64453zm61.00977 0c-.1562 0-.2539.0977-.2539.2539v13.31837c0 .1562.0977.2539.2539.2539h2.65234c.1552 0 .25195-.0977.25195-.2539V18.80078c0-.1562-.0967-.2539-.252-.2539h-2.6523zm6.17968 0c-.1552 0-.25195.0977-.25195.2539v13.31837c0 .1562.09665.2539.25195.2539h2.65235c.1552 0 .2539-.0977.2539-.2539V18.80078c0-.1562-.0986-.2539-.2539-.2539h-2.65235zm-48.82226.00196c-.1558 0-.25387.07814-.29297.21484-.4873 1.9697-1.12986 3.8789-1.85156 5.8672l-2.75 7.4492c-.0585.1758.02.29298.2148.29298h2.75c.1363 0 .2343-.05862.2929-.19532l.5839-1.6367h5.7344l.584 1.6367c.0581.1367.1562.19532.2929.19532h2.75c.1949 0 .2734-.11717.2148-.29297l-2.75-7.4493c-.7216-1.9882-1.3662-3.8975-1.8535-5.8672-.0391-.1367-.1352-.2149-.291-.2149h-3.6289zm31.52734 0c-.1563 0-.25387.07814-.29297.21484-.4864 1.9697-1.1309 3.8789-1.8516 5.8672l-2.75 7.4492c-.0586.1758.0195.29298.2148.29298h2.75c.1358 0 .2324-.05862.291-.19532l.5859-1.6367h5.7324l.5859 1.6367c.0586.1367.1562.19532.2929.19532h2.748c.1944 0 .2734-.11717.2148-.29297l-2.75-7.4493c-.7216-1.9882-1.3643-3.8975-1.8516-5.8672-.0391-.1367-.13673-.2149-.29293-.2149H50.539zm-12.4629 2.35547c-.11562-.0051-.22997.0098-.33397.0391-.416.1191-.6563.5742-.5333 1.1465l1.2129 4.1778c.2461 1.0605 1.4179.8496 1.4179.8496.5684-.1269.9258-.6953.7969-1.248l-1.6348-4.2461c-.211-.5097-.5789-.7033-.9258-.7187zm-2.93358.043c-.098.0082-.16016.0254-.16016.0254-.5547.1289-.92383.6738-.80273 1.2461l1.7148 5.9121c.2988 1.0098 1.2715.7871 1.2715.7871.5547-.1308.9257-.6738.8007-1.2461l-1.7129-5.916c-.2037-.7851-.8174-.8331-1.1114-.8086zm-2.56446.9863c-.11945.0036-.2412.0318-.36132.0762-.4726.1758-.83985.5371-.71485 1.1113l1.1797 4.1074c.293 1.0488 1.27148.8047 1.27148.8047.5508-.1289.92968-.6953.80078-1.248l-1.2851-3.9746c-.1962-.6753-.5322-.8877-.8906-.8769zm-11.75195.2598c.07313 0 .14648.0586.17578.1758.2339 1.2676.85793 3.1016 1.42383 4.6426l.27344.7793h-3.74414l.27148-.7793c.5654-1.5605 1.17043-3.375 1.42383-4.6426.0293-.1172.1026-.1758.1757-.1758zm31.52735 0c.073 0 .14452.0586.17382.1758.2334 1.2676.85843 3.1016 1.42383 4.6426l.27344.7793h-3.7441l.2735-.7793c.5654-1.5605 1.17-3.375 1.4239-4.6426.0293-.1172.1028-.1758.1758-.1758z" fill="#312e33"/>
</svg>
