<svg xmlns="http://www.w3.org/2000/svg" width="650" height="650" xmlns:xlink="http://www.w3.org/1999/xlink">
  <defs>
    <linearGradient id="a">
      <stop offset="0" stop-color="#fef8f2"/>
      <stop offset=".5" stop-color="#87aade"/>
      <stop offset="1" stop-color="#f2a621"/>
    </linearGradient>
    <radialGradient id="b" cx="-18.49" cy="136.543" r="56.981" xlink:href="#a" gradientUnits="userSpaceOnUse" gradientTransform="matrix(14.78297 .14594 -.12462 12.62347 615.37 -993.596)" fx="-18.49" fy="136.543"/>
    <filter id="d" color-interpolation-filters="sRGB">
      <feFlood flood-opacity="1" flood-color="#FFF" result="flood"/>
      <feComposite in="flood" in2="SourceGraphic" operator="in" result="composite1"/>
      <feGaussianBlur in="composite1" stdDeviation="3.5" result="blur"/>
      <feComposite in="SourceGraphic" in2="offset" result="composite2"/>
      <feOffset result="offset"/>
    </filter>
    <filter id="c" color-interpolation-filters="sRGB">
      <feFlood flood-opacity=".765" flood-color="#2341F2" result="flood"/>
      <feComposite in="flood" in2="SourceGraphic" operator="in" result="composite1"/>
      <feGaussianBlur in="composite1" stdDeviation="3.5" result="blur"/>
      <feOffset result="offset"/>
      <feComposite in="SourceGraphic" in2="offset" result="composite2"/>
    </filter>
  </defs>
  <g transform="translate(-.014 -402.348)">
    <circle cx="325.014" cy="727.348" r="322.509" fill="url(#b)" stroke="#000"/>
    <g transform="translate(-53.564 -506.435) scale(1.92768)" filter="url(#c)">
      <path fill="#fae93c" d="M170.48 666.668s-5.4 6.45-5.53 10.364c-.94 28.702-2.417 92.24-2.417 92.24 2.764 3.965 5.527 3.276 8.29 2.763v12.09c1.713 5.62 4.296 6.014 6.91 6.22v-1.728s15.007 5.25 22.8 5.182c6.285-.06 12.946-1.22 18.31-4.5 2.997-1.83 5.186-4.89 6.91-7.95 5.17-9.17 7.596-19.74 9.673-30.06 1.323-6.57 1.26-13.35 1.727-20.04.45-6.45 1.274-12.9 1.037-19.35-.2-5.45-.588-10.99-2.073-16.24-1.066-3.77-4.837-10.71-4.837-10.71l-5.872-11.75-7.255-1.73-10.71 2.76h-23.146z"/>
      <path fill="#69560d" d="M171.303 690.098c2.283 11.062 1.773 22.52 2.57 33.787.53 7.465.682 14.96 1.47 22.402.978 9.228 4.04 29.156 4.04 29.156-2.638-1.36-5.775-5.024-7.914-4.076.78 2.758 1.21 4.976 5.34 7.973l-.37 4.04c-2.59-.96-3.56-.53-4.41 0l-.37 2.937 2.94 3.01 2.57 1.03.36-2.938 1.48.47c-.3-2.74-.58-5.65-.38-11.13l2.57.73v-9.18c1.46-3.19 2.93-3.18 4.4-1.84l-2.21 23.5 1.1.36c.34-.02 2.13-15.83 3.3-15.79 1.39.04.91 2.65 1.1 4.04.58 4.36 0 13.22 0 13.22l12.12 1.83 2.57.37v-5.15c0-1.35.25-2.72 0-4.04-.13-.65-.58-1.2-.74-1.84-.61-2.51-1.04-5.28-.16-7.71.47-1.31.98-2.21 2.37-2.18 2.34.04 2.03 2.16 2.78 4.38 1.61 4.78.52 15.06.52 15.06l9.55-2.94 5.14-4.04 6.24-11.39 4.04-12.49s-6.12 13.58-8.45 16.89c-.71 1-4.13 1.14-3.67 0 .93-2.33 3.7-6.98 5.14-10.65 1.21-3.1 2.24-6.29 2.94-9.55 1.05-4.94 1.38-10.02 1.83-15.06.38-4.27.61-8.56.73-12.85.13-4.77.08-9.55 0-14.32-.06-3.67-.37-11.02-.37-11.02s-1.68 2.17-2.33 3.87c-2.61 6.73-1.35 14.61-1.35 21.83 0 4.65.39 9.32 0 13.96-.31 3.59-.87 7.18-1.84 10.65-.81 2.91-1.3 10.88-3.31 10.97-2.38.1-3.04-6.35-3.68-8.64-1.26-4.53-.24-8.95 0-14.08.18-3.93.67-7.84 1.1-11.75.75-6.99.78-14.14 2.57-20.94.97-3.71 4.4-10.65 4.4-10.65l1.1-14.32s-4.35-2.73-6.61-2.2c-1.51.36-2.71 1.86-3.3 3.3-.33.79-.72 2.11 0 2.57 1.01.66 2.22-1.99 3.3-1.47.9.45.89 1.95.73 2.94-.67 4.14-2.07 8.05-2.97 13.52-1.91 11.67-3.31 25.04-2.91 25.04 0 0-2.14-5.04-2.57-7.71-1.06-6.53-.33-13.23 0-19.83.12-2.46.27-4.93.73-7.35.33-1.75 4.65-8.48 1.47-6.15-3.3 2.42-3.69 7.31-5.4 10.53l.03-4.87s-.98-3.62-.73-4.85c.17-.86 1.84-.12 2.64-.52 2.65-1.31 3.97-4.64 6.67-5.87 2.68-1.22 8.74-1.18 8.74-1.18l-6.89-.68s-3.65 1-5.21 2.02c-1.33.87-1.84 2.9-3.36 3.36-.55.17-1.68-.33-1.68-.33s2.04-4.06 3.87-5.21c1.2-.77 2.78-.72 4.2-.84 2.85-.26 8.57.16 8.57.16l-5.38-1.51h-5.88s1.04-2.02 2.01-2.35c.81-.28 1.91 1.11 2.52.5.65-.64-.95-1.89-.5-2.69.23-.42.86-.55 1.34-.5 2.15.2 5.54 3.36 5.54 3.36l-2.18-4.2-5.04-2.19-5.38-.17-34.4-1.63-13.63.14s.11 6.18.73 9.18c.42 2.03 1.22 3.95 2.02 5.87 0 0 1.2 7.15-1.34 7.68-1.32.28-2.25-3.37-2.25-3.37-.34 2.17.18 7.1 2.53 7.03 2.08-.18 3.07-5.46 3.07-5.46z"/>
      <path fill="none" stroke="#000" d="M170.48 666.668s-5.4 6.45-5.53 10.364c-.94 28.702-2.417 92.24-2.417 92.24 2.764 3.965 5.527 3.276 8.29 2.763v12.09c1.713 5.62 4.296 6.014 6.91 6.22v-1.728s15.007 5.25 22.8 5.182c6.285-.06 12.946-1.22 18.31-4.5 2.997-1.83 5.186-4.89 6.91-7.95 5.17-9.17 7.596-19.74 9.673-30.06 1.323-6.57 1.26-13.35 1.727-20.04.45-6.45 1.274-12.9 1.037-19.35-.2-5.45-.588-10.99-2.073-16.24-1.066-3.77-4.837-10.71-4.837-10.71l-5.872-11.75-7.255-1.73-10.71 2.76h-23.146z"/>
      <path fill="#634a38" d="M182.99 796.118c-.06 1.046 2.664 1.665 2.664 1.665h12.988s1.882-1.328 2.33-2.33c.818-1.828-.233-4.076.334-5.995.254-.858 1.41-1.44 1.332-2.33-.076-.865-1.37-1.184-1.665-2-1.398-3.86.37-8.23 0-12.32-.334-3.71-1.998-10.99-1.998-10.99l-1.665-2.665s.832-4.867 1-7.326c.164-2.436.176-4.89 0-7.326-.335-4.58-2-13.65-2-13.65s2.36 11.27 4.33 16.65c2.03 5.55 7.66 15.99 7.66 15.99s.492 5.58.998 8.33c.913 4.95 3.663 14.66 3.663 14.66s-2.45 6.05-1.66 8.99c.27.99 2 2.33 2 2.33h8s1.61-1.85 1.67-2.99c.09-1.69-2-4.66-2-4.66s.93-15.26-.66-22.64c-.61-2.82-3.33-7.99-3.33-7.99s.03-9.78-.33-14.65c-.39-5.35-.46-10.84-1.99-15.98-1.59-5.33-7.33-14.98-7.33-14.98 2.22-4.25.51-11.13.34-16.98l-27.3-1s-3.02 13.46-3.33 20.32c-.2 4.56.2 9.16 1 13.65 1.48 8.3 3.84 16.49 6.99 24.31.8 1.98 3 5.66 3 5.66s-.76 5.37-.33 8c1 6.11 6.66 17.32 6.66 17.32s-2.18 5.66-4.33 7.66c-1.89 1.76-6.84.76-6.99 3.33z"/>
      <path fill="#caa38a" d="M196.762 640.687c-1.383.99-2.49 2.433-3.187 3.984-.802 1.79-.955 3.83-.996 5.78-.05 2.08.3 4.16.79 6.18.32 1.31 1.39 3.79 1.39 3.79s.22 3.07 0 4.58c-.27 1.85-1.6 5.38-1.6 5.38 3.08 2.17 11.78 3.93 14.34-1.79 0 0-1.69-3.62-1.99-5.57-.31-1.97.2-5.97.2-5.97s1.58-1.86 1.99-2.98c.8-2.19 1.59-4.41 1.52-6.75-.06-1.89-.56-4.3-1.72-5.79-1.3-1.66-3.67-2.51-5.78-2.59-1.77-.07-3.55.77-4.98 1.79z"/>
      <path fill="#634a38" d="M201.495 672.41c3.117.164 4.64-.743 6.023-3.837 0 0-1.687-3.627-1.992-5.577-.307-1.97.2-5.976.2-5.976s1.58-1.864 1.99-2.988c.805-2.196 1.47-4.036 1.396-6.374-.06-1.887-.432-4.686-1.594-6.174l-3.914.41s2.505 2.765 2.972 4.452c.39 1.406.13 2.432-.208 3.85-.315 1.33-1.535 2.897-2.566 3.793-.572.49-.54.84-1.076 1.38-.714.71-.38 2.34-.944 3.18-.788 1.17-2.37 2.1-3.77 1.97-1.053-.1-1.527-.98-2.082-1.88-.67-1.09-1.507-2.74-1.957-3.93-.803-3.39-.612-6.51-.398-10.05-.802 1.78-.955 3.82-.996 5.77-.05 2.07.3 4.16.79 6.17.32 1.3 1.16 2.46 1.39 3.78.26 1.5.22 3.07 0 4.58-.27 1.85-1.6 5.37-1.6 5.37.64.46 1.54.89 2.57 1.25l.19-9.75s1.67.86 2.56.75c.87-.11 2.25-.75 2.25-.75.24 6.94.49 7.18.74 10.55z"/>
      <path fill="#634a38" d="M199.615 648.555s1.108.628 1.665.936c.38.22.712.58 1.144.63.502.06 1.457-.41 1.457-.41s.07-1.04-.2-1.45c-.29-.44-.85-.67-1.35-.83-.46-.15-1-.27-1.45-.1-.55.21-1.25 1.25-1.25 1.25zm-6.855 1.333s1.26-.463 1.892-.378c.43.058.874.28 1.294.167.488-.13 1.206-.917 1.206-.917s-.323-.997-.722-1.282c-.432-.307-1.034-.317-1.563-.285-.486.03-1.032.108-1.395.432-.44.39-.71 2.263-.71 2.263zm4.696-.618c-1.104.473-2.247 7.96-3.958 3.278l.183 2.628.46.47.54 2.368 2.83 2.774s-1.25-2.594-.76-3.317c.17-.24 1.12-.2 1.49-.37.77-.35 1.22-.73 1.22-.73s-1.29-.11-1.85-.33c-.46-.71.85-.43 1.54-1.23-.7-.22-1.69-.39-2.4-.79z"/>
      <path fill="none" stroke="#000" d="M196.762 640.687c-1.383.99-2.49 2.433-3.187 3.984-.802 1.79-.955 3.83-.996 5.78-.05 2.08.3 4.16.79 6.18.32 1.31 1.39 3.79 1.39 3.79s.22 3.07 0 4.58c-.27 1.85-1.6 5.38-1.6 5.38 3.08 2.17 11.78 3.93 14.34-1.79 0 0-1.69-3.62-1.99-5.57-.31-1.97.2-5.97.2-5.97s1.58-1.86 1.99-2.98c.8-2.19 1.59-4.41 1.52-6.75-.06-1.89-.56-4.3-1.72-5.79-1.3-1.66-3.67-2.51-5.78-2.59-1.77-.07-3.55.77-4.98 1.79z"/>
      <path fill="#fae93c" d="M192.73 646.216c3.18-5.532 11.963-3.258 16.517.574-.138-4.004.965-15.197-3.72-18.453-3.732-2.592-9.42-2.5-13.147 1.594-.496 1.19-.685 2.48.398 4.19 0 0 2.073.29 2.988 1 .598.47 1.594 2.19 1.594 2.19-3.957 1.41-5.36 5.9-4.63 8.92z"/>
      <path fill="#7b640f" d="M205.04 628.207c-.653.264 1.405 4.092-6.657 4.313-2.563.07-6.03 1.445-6-2.594-.496 1.185-.677 2.476.406 4.187 0 0 2.05.29 2.96 1 .6.465 1.59 2.188 1.59 2.188-3.96 1.41-5.36 5.89-4.63 8.91 1.82-11.94 15.77-7.14 16.53.6-.14-4 .97-15.21-3.72-18.47-.24-.13-.41-.16-.5-.12zm.187 3.938c1.27 1.354 1.608 3.943 1.437 7.218-1.665-1.458-3.433-2.043-5.593-2.53l-1.09-2.5c2.36.1 4.33-.372 5.25-2.188z"/>
      <path fill="none" stroke="#000" d="M192.73 646.216c3.18-5.532 11.963-3.258 16.517.574-.138-4.004.965-15.197-3.72-18.453-3.732-2.592-9.42-2.5-13.147 1.594-.496 1.19-.685 2.48.398 4.19 0 0 2.073.29 2.988 1 .598.47 1.594 2.19 1.594 2.19-3.957 1.41-5.36 5.9-4.63 8.92z"/>
      <path fill="#fae93c" stroke="#000" d="M164.8 660.178c4.758-1.406 11.562-2.694 15.26 4.043 0 0 1.32-.91 2.223-1.01 4.67-.52 5.293.41 8.186 1.52 2.5.97 5.92 3.14 8.48 3.94 2.32.73 7.78.31 7.78.31l-7.18 10.11-19.91-1.72z"/>
      <path fill="#7b640f" d="M206.74 668.97l-7.175 10.107-19.91-1.718-13.885-14.03s7.297-2.21 10.88-.03c2.413 1.46 3.076 6.23 5.584 7.52 7.842 4.05 17.31 2.72 24.506-1.86z"/>
      <path fill="#caa38a" d="M158.96 651.234s.804-1.275.996-1.993c.438-1.63-.49-3.57.3-5.08.71-.51 2.684-1.73 1.792-2.49-.814-.69-2.624.5-3.9 1.75l-.085-.85c-.17-1.72 4.206-4.01 2.99-4.38-1.884-.57-3.594 1.36-4.768 2.93 0 0-.236-.85.042-1.65.595-1.7 3.693-3.46 2.717-3.8-2.382-.83-4.345 1.8-5.165 3.22-.5-3.31-.47-5.78-1.8-5.68-1.55.13-.9 2.53-.7 4.09-1.15-.41-2.41-1.18-2.79.7 0 0 1.31.68 1.89 1.4.72.9 1.36 2.16 1.59 3.29.38 1.86.07 3.83.5 5.68.23 1.01 1.09 2.89 1.09 2.89 2.44 12.59 11.99 24.82 23.96 30.29l1.99 8.97 15.73-.4 5.97-15.73s-8.35 1.41-12.55 1.2c-2.03-.1-4.12-.36-5.98-1.19-1.52-.68-2.96-1.68-3.99-2.99-1.47-1.87-1.49-4.58-2.79-6.57-.8-1.22-1.47-2.06-2.84-2.54-1.21-.41-4.33-.45-4.33-.45-1.31-3.06-6.48-6.91-9.92-10.57z"/>
      <path fill="#634a38" d="M152.086 642.666c.386 1.86.074 3.827.498 5.68.23 1.003 1.096 2.888 1.096 2.888 2.44 12.59 11.996 24.815 23.96 30.286l1.992 8.964 8.92-.226c-.174-9.888-6.16-7.992-5.733-15.908-1.52-.678-2.97-1.68-3.99-2.988-11.58 3.638-22.76-18.97-21.09-20.128 0 0-.17-2.732.02-3.45-4.32-4.694-4.61-4.222-5.69-5.118z"/>
      <path fill="none" stroke="#000" d="M158.96 651.234s.804-1.275.996-1.993c.438-1.63-.49-3.57.3-5.08.71-.51 2.684-1.73 1.792-2.49-.814-.69-2.624.5-3.9 1.75l-.085-.85c-.17-1.72 4.206-4.01 2.99-4.38-1.884-.57-3.594 1.36-4.768 2.93 0 0-.236-.85.042-1.65.595-1.7 3.693-3.46 2.717-3.8-2.382-.83-4.345 1.8-5.165 3.22-.5-3.31-.47-5.78-1.8-5.68-1.55.13-.9 2.53-.7 4.09-1.15-.41-2.41-1.18-2.79.7 0 0 1.31.68 1.89 1.4.72.9 1.36 2.16 1.59 3.29.38 1.86.07 3.83.5 5.68.23 1.01 1.09 2.89 1.09 2.89 2.44 12.59 11.99 24.82 23.96 30.29l1.99 8.97 15.73-.4 5.97-15.73s-8.35 1.41-12.55 1.2c-2.03-.1-4.12-.36-5.98-1.19-1.52-.68-2.96-1.68-3.99-2.99-1.47-1.87-1.49-4.58-2.79-6.57-.8-1.22-1.47-2.06-2.84-2.54-1.21-.41-4.33-.45-4.33-.45-1.31-3.06-6.48-6.91-9.92-10.57z"/>
      <path fill="#fae93c" d="M193.643 687.34c2.158-7.283 6.585-14.565 12.624-21.848 0 0 2.63-.325 3.884 0 1.62.418 2.74 2.11 4.37 2.428 1.29.248 2.64-.85 3.89-.486 1.71.496 2.53 2.61 4.13 3.4.97.476 2.35.015 3.16.727 3.31 2.91 4.61 12.39 4.61 12.39s-2.42-6.32-4.85-8.49c-1.51-1.35-4.18-3.89-5.58-2.43-3.96 4.16-11.76 15.79-12.62 14.81l-.15 3.24-13.08.03z"/>
      <path fill="#7b640f" d="M210.15 665.492c1.614.418 2.735 2.11 4.37 2.428 1.282.248 2.632-.85 3.885-.486 1.71.496 2.528 2.61 4.127 3.4.968.476 2.344.015 3.156.727 3.31 2.91 4.612 12.39 4.612 12.39s-2.426-6.32-4.855-8.49c-1.51-1.35-4.184-3.89-5.584-2.43-3.96 4.16-11.76 15.79-12.62 14.81l-.15 3.24-13.08.03-.36-3.75 1.22-2.44 7.16-.19c1.66-1.98 2.54-4.87 5.32-6.29 0 0-2.26 3.13-2.11 4.91.08.99 1.61 2.51 1.61 2.51s5.11-7.68 8.57-11.36c.88-.93 3.25-2.98 3.25-2.98s-.27-3.14-.98-3.29c-.88-.19-3.53 2.02-4.43 1.92-.85-.09-.9-2.99-1.75-2.85-1.46.25-3.12 3.49-4.17 4.53-2.69 2.67-7.04 8.94-7.04 8.94s3.12-7.33 5.42-10.56c1.25-1.75 4.47-4.65 4.47-4.65z"/>
      <path fill="none" stroke="#000" d="M193.643 687.34c2.158-7.283 6.585-14.565 12.624-21.848 0 0 2.63-.325 3.884 0 1.62.418 2.74 2.11 4.37 2.428 1.29.248 2.64-.85 3.89-.486 1.71.496 2.53 2.61 4.13 3.4.97.476 2.35.015 3.16.727 3.31 2.91 4.61 12.39 4.61 12.39s-2.42-6.32-4.85-8.49c-1.51-1.35-4.18-3.89-5.58-2.43-3.96 4.16-11.76 15.79-12.62 14.81l-.15 3.24-13.08.03zM182.99 796.118c-.06 1.046 2.664 1.665 2.664 1.665h12.988s1.882-1.328 2.33-2.33c.818-1.828-.233-4.076.334-5.995.254-.858 1.41-1.44 1.332-2.33-.076-.865-1.37-1.184-1.665-2-1.398-3.86.37-8.23 0-12.32-.334-3.71-1.998-10.99-1.998-10.99l-1.665-2.665s.832-4.867 1-7.326c.164-2.436.176-4.89 0-7.326-.335-4.58-2-13.65-2-13.65s2.36 11.27 4.33 16.65c2.03 5.55 7.66 15.99 7.66 15.99s.492 5.58.998 8.33c.913 4.95 3.663 14.66 3.663 14.66s-2.45 6.05-1.66 8.99c.27.99 2 2.33 2 2.33h8s1.61-1.85 1.67-2.99c.09-1.69-2-4.66-2-4.66s.93-15.26-.66-22.64c-.61-2.82-3.33-7.99-3.33-7.99s.03-9.78-.33-14.65c-.39-5.35-.46-10.84-1.99-15.98-1.59-5.33-7.33-14.98-7.33-14.98 2.22-4.25.51-11.13.34-16.98l-27.3-1s-3.02 13.46-3.33 20.32c-.2 4.56.2 9.16 1 13.65 1.48 8.3 3.84 16.49 6.99 24.31.8 1.98 3 5.66 3 5.66s-.76 5.37-.33 8c1 6.11 6.66 17.32 6.66 17.32s-2.18 5.66-4.33 7.66c-1.89 1.76-6.84.76-6.99 3.33z"/>
      <path fill="#fff" stroke="#000" d="M236.57 607.586l-3.416 8.15 2.154.312-3.38 5.486 2.47.615-3.7 7 2.485 1.13-1.102 7.38-2.54-.02 1.12 9.57-22.27 149.29 2.94.44 22.35-149.64 3.99-9.03-2.59-.33 1.14-7.59 2.25-.07-.88-7.56 2.68.44-1.97-6.68 2.38.52-1.11-8.98.35-9.69z" style="line-height:normal;-inkscape-font-specification:Sans;text-indent:0;text-align:start;text-decoration-line:none;text-transform:none;block-progression:tb" color="#000" font-family="Sans" overflow="visible"/>
      <path fill="#caa38a" d="M223.82 706.105c.934-5.95 3.972-17.632 3.972-17.632s-1.557-1.286-1.986-2.166c-.48-.987-.45-2.155-.542-3.25-.034-.42 0-1.263 0-1.263-.632.02-1.55-.222-2.047-.36-1.118-.31-1.477-.774-1.36-1.38.1-.523.86-1.14 2.324-1.33-1.46-.946-1.81-1.993-1.25-2.735.37-.49 1.1-1.14 2.34-.52-.48-.91-.81-1.21-.53-1.69.38-.66 1.67-1.22 3.24-.12 0 0-.47-2.09-2.16-2.89-.94-.45-3.07-1.13-3.07-1.13s1.17-1.95 2.35-2.12c2.12-.31 4.08 1.76 5.42 3.43 1.33 1.64 2.17 5.95 2.17 5.95s.87 8.78.72 13.17c-.19 5.99.6 12.54-2.16 17.87-.78 1.51-2.25 2.68-3.79 3.43-1.26.61-4.15.72-4.15.72s.23-4.03.54-6.02z"/>
      <path fill="#634a38" d="M233.387 690.098c-.197 5.997.595 12.543-2.166 17.87-.78 1.514-2.25 2.683-3.79 3.43-1.26.616-4.15.722-4.15.722s.23-4.026.54-6.015c.49-3.085 1.54-7.708 2.44-11.447 2.03.126 3.92.894 7.14-4.56z"/>
      <path fill="none" stroke="#000" d="M223.82 706.105c.934-5.95 3.972-17.632 3.972-17.632s-1.557-1.286-1.986-2.166c-.48-.987-.45-2.155-.542-3.25-.034-.42 0-1.263 0-1.263-.632.02-1.55-.222-2.047-.36-1.118-.31-1.477-.774-1.36-1.38.1-.523.86-1.14 2.324-1.33-1.46-.946-1.81-1.993-1.25-2.735.37-.49 1.1-1.14 2.34-.52-.48-.91-.81-1.21-.53-1.69.38-.66 1.67-1.22 3.24-.12 0 0-.47-2.09-2.16-2.89-.94-.45-3.07-1.13-3.07-1.13s1.17-1.95 2.35-2.12c2.12-.31 4.08 1.76 5.42 3.43 1.33 1.64 2.17 5.95 2.17 5.95s.87 8.78.72 13.17c-.19 5.99.6 12.54-2.16 17.87-.78 1.51-2.25 2.68-3.79 3.43-1.26.61-4.15.72-4.15.72s.23-4.03.54-6.02z"/>
      <path fill="#7b640f" stroke="#000" d="M179.11 701.714c7.152 3.068 15.602 7.533 29.06 7.75l2.29.175c2.076 1.96 3.098 7.66-2.994 9.15-6.57-.31-16.38-.8-30.117-7.75-1.88-3.85-2.09-7.26 1.76-9.34z"/>
      <path fill="#7b640f" stroke="#000" d="M187.498 698.647l.31 34.146c.732 1.072 1.81 1.453 2.95 1.707l11.175.31c1.13-.912 3.105-1.655 2.328-2.948l-.62-32.594-1.24-1.707z"/>
      <path fill="#fae93c" d="M201.633 698.02l-13.344.625s.69 6.794.38 11.29c-.05.625.95 1.57.8 2.08-.12.408-.52.63-.52.63s.96 1.935.55 2.815c-.15.317-.53.274-.53.274s1.01 3.202.55 4.627c-.13.41-.42.55-.42.55s.71 2 .35 2.82c-.15.34-.49.16-.49.16l.05 5.21 1.87 1.53 10.56.16 1.06-3.56-.06-3.27c-.89 1.73-1.77.75-2.66.95 1.08-.34 2.19-2.96 2.67-3.7l.2-22.7zm-5.375 8.53s-.017 1.558-.53 2.403c-.635 1.048-2.235 1.52-3.43 1.246-1.705-.4-2.32-3.22-2.32-3.22s1.42.88 2.155.95c.756.08 1.542.17 2.28 0 .663-.16 1.845-1.39 1.845-1.39z"/>
      <path fill="#fae93c" d="M207.238 693.695l1.214 1.64c1.262 2.653 1.183 4.78-.486 6.56l-28.563-.106c-.745-2.34-2.523-3.76-.325-8.43 12.278-1.05 16.058-.56 28.16.33z"/>
      <path fill="#7b640f" d="M208.263 699.715l1.214 1.64c.528 2.652.28-.624-.485 1.155-10.188-.957-20.376-1.634-30.564-.584-.088-2.336-1.385 1.645-.325-3.018 7.384-.467 12.37-.498 17.206-.25.24.012 1.56-.6 3.1-1.086 1.62-.51 3.47-.896 3.73-.88.72.044-3.36 2.212-2.66 2.264 2.99.222 5.8.503 8.77.758z"/>
      <path fill="none" stroke="#000" d="M207.074 285.62c2.903 1.767 2.94 4.286 1.548 6.725-10.103-.965-20.226-1.747-30.614-.18-.52-1.884-.796-4.98.905-6.79 12.28-.777 16.06-.41 28.16.244z" transform="matrix(1 0 0 1.35105 .164 307.81)"/>
      <path fill="#fae93c" d="M207.238 687.826l1.214 1.214c.528 1.963.28 3.538-.486 4.855l-28.563-.08c-.09-1.727-1.385-2.78-.325-6.232 12.278-.778 16.058-.412 28.16.243z"/>
      <path fill="#7b640f" d="M207.238 691.826l1.214 1.214c.528 1.963.28-.462-.486.855-9.52-.7-19.042-1.103-28.563-.08-.012-1.87-.304-.824-.325-2.232 12.278-.778 16.058-.412 28.16.243z"/>
      <path fill="none" stroke="#000" d="M207.238 687.826l1.214 1.214c.528 1.963.28 3.538-.486 4.855-8.46-.626-16.85-1.29-28.563-.08-.09-1.727-1.385-2.78-.325-6.232 12.278-.778 16.058-.412 28.16.243z"/>
      <path fill="#fae93c" d="M186.155 710.872c-1.48-.645-1.646-1.29-1.937-1.937 1.008.61 1.786.755 2.113 0v-2.29l-5.98-2.994s-1.12-.35-1.73 0c-.41.24-1.09 1.24-1.09 1.24-.08 1.48 1.1 2.33 2.64 3-.88.76-1.76.27-2.64-.17l1.24 2.29s5.19 3.85 7.4 2.36c.59-.39 0-1.48 0-1.48zm19.707 5.864s.82.542 1.276.51c1.027-.07 1.95-.807 2.68-1.53.42-.417.893-1.532.893-1.532s-1.17.606-1.78.51c-.6-.094-1.53-1.02-1.53-1.02s1.53.087 2.17-.256c.35-.184.77-.893.77-.893s-.17-1.225-.64-1.53c-.53-.355-1.27.02-1.91 0-.68-.023-1.45-.482-2.04-.13-.36.218-.51 1.15-.51 1.15z"/>
      <path fill="#caa38a" d="M179.844 718.88s4.785 5.086 5.714 8.89c.508 2.078-.062 4.463.952 6.348.674 1.254 2.32 1.72 3.175 2.857 2.045 2.725 3.903 5.842 4.444 9.206.64 4.01-1.59 12.07-1.59 12.07s3.29 4.41 4.12 6.99c1.79 5.56 1.58 17.46 1.58 17.46v7.3l-2.54 4.45-4.13.32 4.44-9.84s-4.49-11.86-5.4-18.09c-.4-2.72 0-8.25 0-8.25s-3-4.74-4.13-7.3c-1.93-4.38-3.32-9-4.45-13.65-.78-3.23-1.51-6.52-1.59-9.84-.09-3.72-.64-8.89-.64-8.89zm26.29 6.358s1.362 9.378.75 12.844c-.614 3.467-3.28 7.563-3.28 7.563s1.93 5.08 3.03 7.562c1.32 2.99 4.28 8.844 4.28 8.844s1.12-11.26 1-16.9c-.07-3.29-.11-8.42-1-11.59-1-3.58-4.78-8.31-4.78-8.31zm10.562 45.25l-2.97 23.844 6.126.22-1.813-4.75s.2-6.216 0-9.314c-.23-3.355-1.35-10-1.35-10z"/>
    </g>
    <path fill="green" d="M256.324 172.448l-.153.022-.1.132-.22.02-.06.045-.11.11-.15-.132-.39-.043-.3.02-.28-.064-.26.022-.17.087-.08.066-.02.153-.02.175-.08.07h-.18l-.11-.04-.11-.19h-.17l-.11-.08-.09.05-.11.11-.11-.04-.02-.19-.06-.09-.11-.02h-.17l-.2.11-.19-.06-.09-.02-.13.09-.31.26-.59.33-.22.13-.26.22-.15.09h-.02l-.06.09-.11.11-.2.07-.15.11-.22.02-.11.07-.26.02-.13.02-.48.31-.2.22-.2.57-.09.37-.04.11-.22.24-.19.13-.26.27-.21.15-.04.22-.09.96.06.18.31.39.13.35.11.18.33.13.29.05.06.04.07.04.38.11.24.13.98.18-.02.11.09.15.22.11.21.31.38.44.08.04.28.2.17.2h.13l.13-.17h.15l.11.09.15.02.07.07.52.16.29.02.17-.02.18.08.088-.04.4-.04.15.09.33-.04.33.2.48.16h.11l.13-.13h.11l.11-.09.17-.07.09-.13.13-.02.09-.13.1-.03.13-.17.26-.05.02-.09-.04-.15.13-.05.13-.2.22-.08.07-.08h.02l.2-.07.11-.153.13-.02-.02-.22-.18-.026-.54.09-.04-.06.17-.09.24.026.09-.11h.13l.07-.13.15.04.22-.05.04.04.07-.13.02-.29-.07-.267.04-.11.05-.13-.24.02-.03-.04.13-.26-.11-.55.02-.22.11-.28.29-.31.21-.59.15-.2.064-.17.22-.35.02-.33.09-.18v-.33l-.044-.15-.06-.02-.11.04-.09-.11v-.18l-.068-.11.02-.13-.15-.2.023-.2-.05-.09-.39-.26-.11-.2-.26-.2-.11-.04-.434-.044-.28-.11-.04-.07v-.09h-.26l-.18-.173zm-16.514 5.82l-.417.262-.065.218-.044.35-.372.547-.263.153-.53.175-.13.132-.09.087-.2.088-.2.043-.48.57-.46.415-.16.35-.05.306-.31.46.07.065.02.19-.02.17-.02.15.11.35.13.06.06.15v.13l.06.09.15-.03.08.04.15.15.17-.05.08.02.11-.37.13-.13.02-.29.28-.48.43-.75.2-.22.15-.09.31-.02.11-.09.11-.02h.11l.13-.07.22.02.15-.13.17.02.04-.07.2-.03.24-.18v-.13l-.17-.39-.04-.22.11-.54.15-.42.2-.28.19-.14.04-.22-.03-.15-.07-.11-.33-.17-.08.04-.09.06h-.1l-.24-.16zm50.53 7.524l-.13.11-.308.065-.13.088-.24.087-.286.22-.197.218-.66.634-.05.306-.27.416-.68.59-.03.176-.35.262-.18.13-.11.023-.18-.065-.28.065-.44.022h-1.25l-.55.04-.46.04-.37.04-.05.04.41.28.06.04.35.33.2.22.13.28.04.22.02.61-.05.35.04.13.11.06.17.22.09.22.15.02.31.28.26.48.07.19.04.35.09.15.57.35.17.24.19.26.18.61.04.15.06.17h.04l.15.63.09.13.13.13.22.04 1.33-.18.52-.13.7-.11.26-.11.15-.15.06-.27-.06-.17-.15-.13-.42-.22-.5-.16-.09-.09.06-.11v-.18l.2-.16.09.13h.11l.02.09-.02.15.06.15.07.02.19-.06.04.02v.11l.31.22.07-.04.02-.29-.11-.15-.11-.02-.18-.16-.07-.13.06-.29.082.02.063.06.19.28.083.04.09-.17-.06-.13.02-.06.13-.04.13.07.37.22.09-.02.04.06-.15.31-.04.11.06.11-.047.06-.33-.06-.2.08-.04.13.04.13-.02.17-.02.04.11.24.085.11.28.064.31.02.15.11.09.02.24-.22.48-.33.07.064-.05.11v.084l.084.09.2-.02.15.11h.13l.06.064.05.26.065.13.14.09.24.04.11.13.09.13.2.09.11.11.06.33.13.11.4-.02.13.04.11-.02.35-.33.17-.11.413-.11.72-.11.16.04.06.09.043.11-.02.11.04.15.06.04h.24l.09-.26.13-.02.13-.07.24-.22.44-.42.18-.22V196l-.09-.11-.22.05-.35-.303-.28-.06-.13-.11-.22-.2-.13-.26-.11-.5.063-.31-.02-.09-.18-.22-.13-.086-.24-.06-.13-.15-.15-.29v-.13l.174-.22.02-.39.17-.11.13-.2-.02-.06-.13-.02-.28.13-.15.04-.37-.16h-.11l-.13.15-.11.02v.09l.11.16.24.11-.09.65-.13.04-.16.05-.15-.04-.09-.15-.05-.13-.04-.11-.07-.05-.07.09-.18-.11-.193-.24.083-.09-.2-.33-.16-.02-.06-.06-.17-.04v-.04l-.09.05-.09-.11-.04-.15.045-.22-.02-.13-.13-.11-.02-.06.04-.05-.14-.22.044-.11.07.02.24-.26.06-.24-.19-.59-.04-.02v-.07l-.06-.11-.26-.13-.18-.07-.09.15-.15-.02-.025-.11.06-.22-.07-.13-.13-.09-.436-.63-.18-.18-.154-.28-.15-.26.11-.22-.09-.28-.18-.08-.07-.15-.2-.31v-.07l-.18-.24-.17-.29-.35-.37-.374-.06zm17.544 12.513l-.066.022-.065.11v.086l.153.11.11.175v.306l-.023.197-.044.07-.11.2-.27.22-.11.09-.15.05-.29.37-.05.13-.05.11-.13.09-.03.11-.05.33-.09.11-.11.2-.03.11.11.09.11.07h.11l.63.07.81.07.96-.09.42-.02.11-.04.19.05.11.02.15-.04.24.03.46-.15.61-.11.11-.06.22.07h.08l.59.05.28.09.28.07.22.18.39.13.31.15.48.15v-.02l.57.17.94.18.46.09.13.13h.2l.24.03.11-.04.09-.08.17-.04.15.03-.02.13.2-.11h.09l.04-.05.06-.06.11-.02.13-.13h.09l.07-.06.24.02.09-.04.28-.15.11-.11.24-.11.2-.192.25-.15.5-.46.61-.83.09-.27-.09-.09-.35.13-.33-.175.11-.2-.07-.09-.16-.07-.31.04h-.64l-.18.11-.04-.02-.27-.09h-.02l-.2.045-.28.192h-.1l-.4-.02-.175.13h-.28l-.22-.13-.13.09-.285-.2-.044.15h-.2l-.07-.09h-.15l-.09-.06-.16.062-.09-.02-.07-.06-.13.02-.26-.14-.09-.17-.07-.22-.2-.48-.22-.15h-.13l-.152.22-.11.35-.063.175-.083.15h-.37l-.748-.2-.5.06-.79-.263h-.27l-.42-.02-.17-.05h-.35l-.13.07-.22-.09-.028-.045-.72-.086-.11-.07-.2-.22-.31-.06-.22.04-.546-.09-.22-.11zm15.946 4.965l-.328.022-.13.13-.176-.086-.197.087-.2-.065h-.13l-.09.087.06.11-.29.328-.16-.088-.11.022-.11.13-.16.483-.09.13-.18.242-.2.525-.09.393-.04.132v.153l.09.175.09.065.11.285v.218l.08.197.06.394.13.19.37.35.15.22.06.11.15.09.13.11.22.37.08.13.33-.02.17.06.35.28.22.09.41.06.59.37.11.02.11-.05.39-.35.11-.05.22-.09.13.04.31.11.24.17.15.2.06.21-.02.26v.11l.09.39.22.57.09.52.02.07-.03.3.08.39-.03.35-.06.13-.17.24.13.13.13.26.04.13-.02.11-.02.08.18.28.15.06.26-.02.08.17-.03.11.06.09h.13l.11.09h.46l.18.11h.13l.28-.11.17-.02.13-.06.17.04.09-.04.13-.09h.22l.28.04h.26l.15-.07.22-.16.17-.04.13-.09.22-.05.24-.13.02-.02.39-.15.35-.24.29-.11.28-.07h.28l.22.13.09-.04.17.04.11-.06.22-.04.13.02.13.13.08-.02.06-.09h.13l.11-.16.15-.05.31-.2.2-.02.24-.16.14-.11h.09l.13.11h.11l.37-.13.11-.07.02-.02.11-.22.28-.37.15-.11.22-.06.08-.04.13-.11.31-.42.11-.18-.03-.13.09-.24-.04-.11.11-.39-.046-.22.024-.09.047-.22-.52-.63-.39-.24-.29-.09-.53-.09-.09-.02-.35-.33-.29-.09-.11-.09h-.17l-.2.09h-.15v-.03l-.09-.02-.18-.24-.09-.046-.13-.37-.11-.15-.17-.02-.13-.11-.31.07-.13-.02-.11-.24-.29-.2-.24-.33-.33-.285-.13-.07-.2-.33-.15-.09-.15-.24-.2-.09-.24-.11-.15.04h-.05l-.11-.06v-.02l-.35.05-.18-.174h-.1l-.26.09-.22.05-.155-.13-.21-.02-.22.064-.17.17-.22-.03-.26.07-.247.13-.28.33-.15.06-.18.02-.22.02-.2.09-.31-.02-.31.22-.22.08h-.06l-.46.04h-.11l-.09-.07-.304-.414-.11-.284-.24-.29-.15-.26-.04-.06-.11-.04-.2-.35v-.31l-.05-.13-.17-.07-.31-.33-.18-.13-.13-.175-.157-.07-.16-.13-.22-.09-.2-.2zm-9.45 2.538l-.328.022-.46.065-.24.022-.196.066-.175.197-.04-.044-.17.044-.11.087-.06.22-.04.283.09.263.24.284.73.372.18.13.42.57.09.26.02.22-.04.28.02.35v.28l.18.5.06.13.18.15.2.17.07.06.13.02.18-.05h.29l.38-.06h.33l.18-.11.07.02.16-.03.15-.09.2-.02.5-.31h.42l.13-.16.22-.48.37-.57.07-.17-.04-.2-.15-.35-.41-.57-.35-.42-.19-.18-.44-.35-.29-.28-.37-.26-.39-.13-.66-.2-.18.05h-.13l-.3-.05-.22-.04-.17-.05zm9.757 8.444l-.306.087-.26.19-.19.02-.15.19-.39.28-.15.06-.15.15-.19.13h-.19l-.13.04-.2.06-.22.26-.15.09-.21.22v.06l.11.19.26.19.05.17.26.13.16.02.13-.04.31-.3.09.19.08.04.48-.29h.15l.16.06.13-.17.14.06.07.17.11.08.24-.02.24-.13h.11l.06-.04.2.06h.16l.09-.04.08-.13.18-.18.05-.11-.13.02-.09-.11h-.05l-.15.08h-.13l.06-.09v-.16l.07-.19.2-.46.02-.27-.07-.11-.15-.13-.07-.13-.09-.09-.26-.156h-.3zm17.063 8.596l-.33.175-.414.68-.022.02-.132.59v.22l-.043.13-.05.067.08.24.02.635.17.525.04.13.02.242.13.24.04.197.04.21.08.15.24.22.04.06.35.41.24.37.26.33.11.15.04.06v.24l-.11.43v.15l.02.11-.09.37-.46.24-.09.06-.22.31-.13.17v.13l-.27-.05.02.13-.09.06-.13.04-.11.15-.02.17.15.18-.33.2-.02.13-.09.09-.04.22-.02.02-.16.11-.05.13-.13.13-.06.13.06.22-.02.06-.13.04-.15.11h-.11l-.22-.04h-.31l-.22.11-.18.13-.15.26-.4.37-.04.05-.26.35-.42.41-.33.24-.11.18-.04.2.04.25-.15.28.02.13-.22.29.02.08.15.09.11.09.05.09.04.37.06.15.26.19.07.19.11.11.02.18-.11.24h.02l.02.18.09.07.31.11.19.2.24.04.15.11-.02.08.07.26.13.2.07.22.08.08.04.06.07.37v.31l.11.06.02.04-.09.18.26.48.02.11-.05.35.18.39.04.2-.03.22.09.15.04.02.11.02.11.11.13-.05.11.02.11.09v.11l-.17.31.08.54.07.17.15.18.05.16.11.22-.06.33.04.17.15.18.09.13.28 1.12-.11.43.02.57-.18.87-.05.29v.22l-.064.52.023.392-.09.17v.09l-.13.39v.22l-.05.2-.13.17v.11l.13.22-.04.08-.11.18-.02.33.09.615.13.33.29.35.2.35.2.52.15.15.09.045.85.288.41.2.434.09.17.08.59.51.267.2.09.04.27.09.396.06.22.13.31.33.55.35.04.11-.05.416.046.13.09.02.2-.04.152-.13.33-.2.59-.72.22-.39.286.045.11-.066.18-.54.18-.33.027-.11.065-.19.377-.39.17-.31.09-.33-.05-.53.06-.13.24-.2.44-.57.09-.02.17-.04.06-.26v-.1l.083-.066.33-.154.35-.11.39-.06.31-.13.17-.13.15-.22.18-.15.22-.31.7-.35.215-.04.025-.02.57-.26.18-.13.22-.48.087-.09.48-.24.44-.37.42-.11.13-.07.09-.04.24-.02.22.09.305.05.284.13.33.07.52-.04.41-.17h.24l.42-.13.4-.11.44-.37.52-.26.35-.26 1-.37.11-.04.74-.3.11-.05.24-.17.3-.33.55-.41.52-.55.09-.07.7-.46.35-.35.26-.15.37-.31.35-.46.35-.33v-.04l.11-.42.15-.28.09-.28-.09-.26-.29-.22-.3-.04-.29-.19-.33-.06-.2-.13-.22-.09-.04-.04-.09-.06-.48-.26-.59-.61-.263-.19-.07-.13.02-.28-.068-.09-.286-.09-.22-.02-.15-.18-.04-.09-.07-.15-.04-.4v-.33l.09-.24v-.175l-.22-.61-.31-.57-.025-.05-.06-.04-.11.02-.15-.064-.13.063h-.22l-.03.09h-.06l-.18-.15h-.09l-.13.13-.156.02h-.043v.03l-.104.11-.07-.026h-.09l-.09-.04-.07.048-.07.09-.22-.043-.07-.07-.09-.2v-.61l.09-.5.02-.2-.068-.11.04-.26-.09-.24.024-.24.2-.52-.045-.26-.2-.28-.22-.22-.15-.05-.13-.22-.11-.06-.24-.44-.06-.09-.065-.06-.66-.66-.22-.19-.21-.09-.22-.22-.24-.11-.21-.33-.176-.11-.24-.19-.24-.06-.33-.24-.07-.09-.11-.13-.27-.15-.18-.11-.284-.09-.26-.13-.7-.33-.09-.04-.11-.04-.415-.3h-.05l-.24-.05-.44-.3-.11-.07h-.11l-.16-.13-.22-.11-.37-.2-.2-.07-.13-.09-.24-.13-.24-.04-.28-.15-.398-.08-.4-.17-.24-.02-.13.02-.374-.2-.2-.02-.39-.16h-.18l-.68.22-.16-.09-.19-.3-.11-.06-.15-.05-.15-.09-.18-.02-.13-.11-.2-.26-.09-.07-.81-.55h-.15l-.09-.02-.92-.57-.02-.11v-.24h-.13l-.066-.06-.05-.15-.26-.19-.44-.285-.17.04-.24-.13-.24-.027-.39-.26-.15-.02-.37-.16h-.09l-.59-.05z" transform="translate(-856.278 -198.957) scale(4.03324)" filter="url(#d)"/>
    <g fill="#c89b44" fill-rule="evenodd" stroke="#000" stroke-width="2" clip-rule="evenodd">
      <path d="M646.1 756.414c-5.663-16.346-24.4-19.912-16.8-49.057 15.15 14.98 24.9 21.16 16.8 49.057z"/>
      <path d="M642.327 784.253c-4.225-16.782-22.576-21.965-12.464-50.34 13.787 16.248 22.962 23.25 12.464 50.34z"/>
      <path d="M636.105 811.66c-2.737-17.088-20.573-23.85-8.02-51.23 12.316 17.384 20.847 25.163 8.02 51.23z"/>
      <path d="M627.64 838.45c-1.243-17.26-18.424-25.554-3.53-51.733 10.75 18.39 18.573 26.882 3.53 51.734z"/>
      <path d="M616.72 864.432c.268-17.298-16.115-27.056.994-51.846 9.106 19.26 16.162 28.402-.995 51.846z"/>
      <path d="M603.734 889.328c1.77-17.21-13.698-28.36 5.5-51.56 7.403 19.978 13.635 29.7-5.5 51.56z"/>
      <path d="M588.48 913.04c3.264-16.992-11.177-29.446 9.977-50.883 5.636 20.546 10.99 30.772-9.977 50.882z"/>
      <path d="M571.335 935.29c4.728-16.645-8.567-30.312 14.377-49.82 3.816 20.962 8.262 31.612-14.377 49.82z"/>
      <path d="M552.294 955.974c6.168-16.17-5.894-30.94 18.66-48.38 1.978 21.214 5.476 32.218-18.66 48.38z"/>
      <path d="M531.444 974.908c7.555-15.566-3.165-31.335 22.822-46.568.116 21.306 2.64 32.57-22.822 46.568z"/>
      <path d="M509.08 992c8.876-14.852-.427-31.495 26.782-44.4-1.744 21.23-.2 32.674-26.783 44.4z"/>
      <path d="M485.36 1006.96c10.148-14.023 2.32-31.41 30.56-41.898-3.588 21.002-3.05 32.53-30.56 41.898z"/>
      <path d="M460.31 1019.877c11.33-13.084 5.047-31.086 34.087-39.077-5.4 20.615-5.875 32.146-34.086 39.077z"/>
      <path d="M434.29 1030.574c12.417-12.05 7.73-30.53 37.362-35.962-7.173 20.062-8.654 31.51-37.363 35.962z"/>
      <path d="M407.483 1038.936c13.417-10.915 10.363-29.738 40.354-32.564-8.896 19.36-11.364 30.64-40.354 32.564z"/>
      <path d="M379.982 1044.98c14.324-9.707 12.918-28.727 43.038-28.924-10.55 18.512-13.99 29.527-43.038 28.925z"/>
      <path d="M352.068 1048.59c15.115-8.422 15.372-27.487 45.398-25.06-12.126 17.518-16.514 28.195-45.398 25.06z"/>
      <path d="M324.122 1049.68c15.793-7.075 17.712-26.042 47.404-21.01-13.607 16.4-18.9 26.65-47.404 21.01z"/>
      <path d="M295.952 1048.433c16.344-5.67 19.913-24.4 49.053-16.797-14.98 15.15-21.158 24.898-49.053 16.797z"/>
      <path d="M268.11 1044.653c16.783-4.224 21.962-22.57 50.337-12.458-16.24 13.787-23.245 22.964-50.337 12.458z"/>
      <path d="M240.7 1038.442c17.093-2.745 23.857-20.572 51.243-8.03-17.396 12.32-25.174 20.85-51.243 8.03z"/>
      <path d="M213.918 1029.972c17.252-1.245 25.543-18.418 51.73-3.532-18.398 10.757-26.883 18.578-51.73 3.532z"/>
      <path d="M187.93 1019.055c17.3.26 27.06-16.115 51.847.99-19.258 9.112-28.4 16.167-51.846-.99z"/>
      <path d="M163.037 1006.067c17.21 1.77 28.352-13.697 51.555 5.51-19.978 7.396-29.693 13.622-51.555-5.51z"/>
      <path d="M139.322 990.812c16.987 3.263 29.45-11.177 50.89 9.98-20.55 5.633-30.778 10.987-50.89-9.98z"/>
      <path d="M117.08 973.667c16.64 4.734 30.305-8.564 49.82 14.378-20.96 3.815-31.617 8.262-49.82-14.378z"/>
      <path d="M96.393 954.623c16.162 6.168 30.932-5.886 48.376 18.67-21.22 1.975-32.22 5.474-48.38-18.67z"/>
      <path d="M77.457 933.783c15.566 7.55 31.324-3.175 46.568 22.81-21.312.12-32.576 2.647-46.568-22.81z"/>
      <path d="M60.366 911.41c14.845 8.878 31.493-.43 44.402 26.784-21.236-1.742-32.682-.202-44.402-26.783z"/>
      <path d="M45.41 887.7c14.014 10.14 31.398 2.316 41.897 30.552-21.002-3.584-32.54-3.05-41.897-30.55z"/>
      <path d="M32.483 862.647c13.09 11.32 31.09 5.04 39.07 34.083-20.602-5.4-32.13-5.872-39.07-34.083z"/>
      <path d="M21.786 836.623c12.055 12.424 30.54 7.735 35.964 37.36-20.06-7.172-31.51-8.65-35.964-37.36z"/>
      <path d="M13.425 809.813c10.918 13.424 29.744 10.37 32.564 40.353-19.36-8.895-30.64-11.36-32.57-40.353z"/>
      <path d="M7.38 782.316c9.707 14.32 28.73 12.917 28.93 43.038-18.51-10.55-29.52-13.993-28.93-43.038z"/>
      <path d="M3.77 754.4c8.42 15.123 27.49 15.372 25.062 45.4-17.515-12.124-28.2-16.513-25.063-45.4z"/>
      <path d="M2.685 726.457c7.076 15.79 26.04 17.708 21.008 47.41-16.395-13.61-26.647-18.91-21.008-47.41z"/>
      <path d="M3.927 698.28c5.67 16.346 24.408 19.916 16.8 49.06-15.15-14.98-24.898-21.156-16.8-49.06z"/>
      <path d="M7.707 670.448c4.224 16.776 22.58 21.96 12.458 50.328-13.78-16.24-22.962-23.246-12.458-50.328z"/>
      <path d="M13.922 643.042c2.745 17.084 20.573 23.846 8.028 51.222-12.317-17.38-20.85-25.16-8.028-51.222z"/>
      <path d="M22.39 616.25c1.25 17.256 18.42 25.546 3.534 51.73-10.762-18.392-18.58-26.88-3.535-51.73z"/>
      <path d="M33.31 590.264c-.266 17.3 16.12 27.06-.99 51.844-9.118-19.26-16.163-28.4.99-51.844z"/>
      <path d="M46.293 565.367c-1.767 17.214 13.704 28.36-5.5 51.56-7.398-19.98-13.63-29.695 5.5-51.56z"/>
      <path d="M61.554 541.657c-3.27 16.99 11.177 29.445-9.977 50.883-5.64-20.547-10.995-30.77 9.977-50.883z"/>
      <path d="M78.687 519.41c-4.723 16.642 8.578 30.308-14.37 49.827-3.817-20.97-8.26-31.622 14.37-49.828z"/>
      <path d="M97.74 498.723c-6.172 16.17 5.893 30.938-18.673 48.377-1.978-21.214-5.47-32.212 18.673-48.377z"/>
      <path d="M118.577 479.786c-7.542 15.57 3.177 31.336-22.808 46.568-.12-21.3-2.65-32.568 22.8-46.568z"/>
      <path d="M140.954 462.693c-8.877 14.86.433 31.498-26.783 44.406 1.74-21.23.21-32.68 26.79-44.41z"/>
      <path d="M164.66 447.74c-10.136 14.02-2.312 31.412-30.546 41.896 3.58-20.998 3.048-32.528 30.545-41.895z"/>
      <path d="M189.72 434.815c-11.328 13.086-5.05 31.096-34.09 39.077 5.4-20.608 5.875-32.145 34.09-39.077z"/>
      <path d="M215.75 424.12c-12.435 12.052-7.742 30.538-37.37 35.965 7.18-20.062 8.65-31.51 37.37-35.966z"/>
      <path d="M242.55 415.76c-13.425 10.916-10.37 29.742-40.353 32.562 8.9-19.362 11.365-30.638 40.353-32.563z"/>
      <path d="M270.053 409.72c-14.33 9.708-12.92 28.724-43.044 28.922 10.55-18.507 13.99-29.53 43.04-28.92z"/>
      <path d="M297.96 406.106c-15.115 8.422-15.374 27.49-45.39 25.066 12.117-17.523 16.51-28.2 45.39-25.066z"/>
      <path d="M325.91 405.018c-15.796 7.07-17.71 26.043-47.414 21.01 13.605-16.403 18.914-26.65 47.415-21.01z"/>
      <path d="M354.08 406.264c-16.347 5.668-19.918 24.402-49.058 16.797 14.98-15.14 21.16-24.9 49.06-16.79z"/>
      <path d="M381.925 410.043c-16.784 4.22-21.968 22.572-50.343 12.457 16.243-13.786 23.248-22.96 50.343-12.457z"/>
      <path d="M409.333 416.256c-17.093 2.75-23.85 20.57-51.237 8.027 17.385-12.32 25.162-20.846 51.237-8.027z"/>
      <path d="M436.114 424.723c-17.256 1.25-25.553 18.418-51.732 3.54 18.392-10.76 26.882-18.583 51.732-3.54z"/>
      <path d="M462.102 435.642c-17.303-.264-27.063 16.118-51.843-.99 19.25-9.11 28.39-16.162 51.84.99z"/>
      <path d="M486.995 448.63c-17.21-1.766-28.362 13.7-51.564-5.506 19.99-7.397 29.7-13.632 51.57 5.505z"/>
      <path d="M510.705 463.887c-16.993-3.262-29.438 11.174-50.884-9.984 20.56-5.63 30.78-10.985 50.89 9.984z"/>
      <path d="M532.953 481.028c-16.64-4.73-30.304 8.57-49.82-14.38 20.954-3.815 31.617-8.263 49.82 14.38z"/>
      <path d="M553.64 500.073c-16.163-6.17-30.938 5.89-48.382-18.667 21.217-1.975 32.22-5.477 48.38 18.667z"/>
      <path d="M572.57 520.916c-15.56-7.55-31.33 3.177-46.562-22.81 21.306-.118 32.57-2.65 46.562 22.81z"/>
      <path d="M589.667 543.287c-14.852-8.88-31.493.43-44.402-26.78 21.237 1.734 32.67.2 44.402 26.78z"/>
      <path d="M604.63 566.993c-14.02-10.136-31.417-2.313-41.898-30.543 21.002 3.58 32.524 3.047 41.898 30.543z"/>
      <path d="M617.546 592.05c-13.08-11.326-31.092-5.046-39.08-34.083 20.61 5.396 32.15 5.874 39.08 34.082z"/>
      <path d="M628.24 618.073c-12.054-12.418-30.533-7.732-35.957-37.36 20.06 7.178 31.51 8.654 35.958 37.36z"/>
      <path d="M636.603 644.883c-10.913-13.424-29.738-10.367-32.563-40.354 19.36 8.89 30.638 11.36 32.563 40.35z"/>
      <path d="M642.642 672.382c-9.7-14.324-28.72-12.923-28.92-43.036 18.51 10.552 29.523 13.99 28.92 43.036z"/>
      <path d="M646.26 700.293c-8.43-15.116-27.5-15.37-25.07-45.395 17.526 12.124 28.194 16.513 25.07 45.395z"/>
      <path d="M647.347 728.24c-7.073-15.79-26.046-17.707-21.007-47.404 16.397 13.598 26.648 18.904 21.007 47.405z"/>
    </g>
  </g>
</svg>
